<svg xmlns="http://www.w3.org/2000/svg" width="1280" height="640" viewBox="0 0 1280 640" role="img" aria-labelledby="title desc">
  <title id="title">PoseAnalysis social preview</title>
  <desc id="desc">Coach-grade sports technique analysis from iPhone videos, built as a Codex skill.</desc>
  <rect width="1280" height="640" fill="#f8fafc"/>
  <rect x="0" y="0" width="1280" height="72" fill="#111827"/>
  <rect x="72" y="128" width="460" height="384" rx="22" fill="#ffffff" stroke="#d1d5db" stroke-width="3"/>
  <rect x="92" y="152" width="420" height="236" rx="14" fill="#e5eef7"/>
  <path d="M148 354 C234 310 280 316 340 262 C384 222 420 204 478 206" fill="none" stroke="#0f766e" stroke-width="10" stroke-linecap="round"/>
  <circle cx="246" cy="242" r="34" fill="#111827"/>
  <path d="M246 276 L284 336 L344 360" fill="none" stroke="#111827" stroke-width="16" stroke-linecap="round" stroke-linejoin="round"/>
  <path d="M284 336 L248 392 L196 416" fill="none" stroke="#111827" stroke-width="16" stroke-linecap="round" stroke-linejoin="round"/>
  <path d="M280 318 L334 294 L400 282" fill="none" stroke="#2563eb" stroke-width="14" stroke-linecap="round" stroke-linejoin="round"/>
  <path d="M342 360 L428 376" fill="none" stroke="#111827" stroke-width="14" stroke-linecap="round"/>
  <path d="M196 416 L136 424" fill="none" stroke="#111827" stroke-width="14" stroke-linecap="round"/>
  <rect x="92" y="412" width="126" height="24" rx="12" fill="#2563eb"/>
  <rect x="236" y="412" width="116" height="24" rx="12" fill="#0f766e"/>
  <rect x="370" y="412" width="96" height="24" rx="12" fill="#f59e0b"/>
  <rect x="92" y="456" width="260" height="14" rx="7" fill="#cbd5e1"/>
  <rect x="92" y="484" width="340" height="14" rx="7" fill="#cbd5e1"/>
  <text x="600" y="188" fill="#111827" font-family="Inter, Arial, sans-serif" font-size="78" font-weight="800">PoseAnalysis</text>
  <text x="604" y="248" fill="#1f2937" font-family="Inter, Arial, sans-serif" font-size="34" font-weight="600">Coach-grade sports technique analysis</text>
  <text x="604" y="300" fill="#374151" font-family="Inter, Arial, sans-serif" font-size="30">iPhone video · iCloud Inbox · Codex Skill</text>
  <text x="604" y="350" fill="#374151" font-family="Inter, Arial, sans-serif" font-size="30">Foil fencing · Climbing · Youth fitness</text>
  <g font-family="Inter, Arial, sans-serif" font-size="24" font-weight="700">
    <rect x="604" y="404" width="188" height="48" rx="24" fill="#2563eb"/>
    <text x="632" y="437" fill="#ffffff">MediaPipe</text>
    <rect x="812" y="404" width="172" height="48" rx="24" fill="#0f766e"/>
    <text x="840" y="437" fill="#ffffff">Local-first</text>
    <rect x="1004" y="404" width="174" height="48" rx="24" fill="#f59e0b"/>
    <text x="1032" y="437" fill="#111827">Evidence</text>
  </g>
  <text x="604" y="518" fill="#4b5563" font-family="Inter, Arial, sans-serif" font-size="24">Quality gate · scoring rubric · training advice · trend tracking</text>
  <text x="72" y="46" fill="#ffffff" font-family="Inter, Arial, sans-serif" font-size="24" font-weight="700">github.com/jayv29/pose-analysis-skill</text>
</svg>
